<?xml version="1.0" encoding="utf-8"?>
<!-- Generator: Adobe Illustrator 25.0.1, SVG Export Plug-In . SVG Version: 6.00 Build 0)  -->
<svg version="1.1" id="Calque_1" xmlns="http://www.w3.org/2000/svg" xmlns:xlink="http://www.w3.org/1999/xlink" x="0px" y="0px"
	 viewBox="0 0 100 125" style="enable-background:new 0 0 100 125;" xml:space="preserve">
<style type="text/css">
	.st0{fill:none;}
</style>
<g>
	<g>
		<polygon class="st0" points="85.1,21.4 50,21.4 15,21.4 50,56.4 		"/>
		<path class="st0" d="M39.5,50L10.9,21.4c-1.7,0.3-3,1.7-3,3.5v50.2c0,1.8,1.3,3.2,3,3.5L39.5,50z"/>
		<path class="st0" d="M89.1,21.4L60.5,50l28.6,28.6c1.7-0.3,3-1.7,3-3.5V24.9C92.1,23.1,90.8,21.7,89.1,21.4z"/>
		<path class="st0" d="M51,59.5c-0.3,0.3-0.7,0.4-1,0.4c-0.4,0-0.7-0.1-1-0.4l-7.4-7.4L15,78.6h70.1L58.5,52.1L51,59.5z"/>
		<path d="M88.6,18.5H50H11.4c-3.6,0-6.4,2.9-6.4,6.4v50.2c0,3.6,2.9,6.4,6.4,6.4h77.1c3.6,0,6.4-2.9,6.4-6.4V24.9
			C95,21.3,92.1,18.5,88.6,18.5z M50,21.4h35.1L50,56.4l-35-35H50z M7.9,75.1V24.9c0-1.8,1.3-3.2,3-3.5L39.5,50L10.9,78.6
			C9.2,78.3,7.9,76.9,7.9,75.1z M15,78.6l26.6-26.6l7.4,7.4c0.3,0.3,0.7,0.4,1,0.4c0.4,0,0.7-0.1,1-0.4l7.4-7.4l26.6,26.6H15z
			 M92.1,75.1c0,1.8-1.3,3.2-3,3.5L60.5,50l28.6-28.6c1.7,0.3,3,1.7,3,3.5V75.1z"/>
	</g>
</g>
</svg>
